<svg width="104" height="104" viewBox="0 0 104 104" fill="none" xmlns="http://www.w3.org/2000/svg">
<circle cx="52" cy="52" r="48.5" stroke="black" stroke-width="7"/>
<path d="M49.1992 75.434C47.5872 75.434 45.9546 75.248 44.3012 74.876C42.6479 74.504 41.1186 73.9253 39.7132 73.14C38.3492 72.3133 37.2332 71.2593 36.3652 69.978C35.5386 68.6553 35.1252 67.0847 35.1252 65.266C35.1252 65.0593 35.1252 64.8733 35.1252 64.708C35.1252 64.5013 35.1459 64.2533 35.1872 63.964C35.3112 62.848 35.5799 61.4633 35.9932 59.81C36.4479 58.1567 36.9646 56.4 37.5432 54.54C38.1219 52.68 38.6799 50.8407 39.2172 49.022C39.7959 47.2033 40.2712 45.55 40.6432 44.062C41.0152 42.5327 41.2012 41.3133 41.2012 40.404C41.2012 39.412 40.9326 38.916 40.3952 38.916C39.8579 38.916 39.0519 39.4327 37.9772 40.466C36.9026 41.4993 35.6626 43.2147 34.2572 45.612L33.8852 45.488C33.8852 42.14 34.6292 39.288 36.1172 36.932C37.6466 34.5347 39.7959 32.716 42.5652 31.476C45.3759 30.1947 48.6826 29.554 52.4852 29.554C56.0399 29.554 59.0986 30.0913 61.6612 31.166C64.2239 32.1993 66.3112 33.6253 67.9232 35.444C69.5766 37.2627 70.7959 39.35 71.5812 41.706C72.3666 44.0207 72.7592 46.4593 72.7592 49.022C72.7592 52.122 72.2012 55.2427 71.0852 58.384C70.0106 61.484 68.4399 64.336 66.3732 66.94C64.3479 69.5027 61.8679 71.5693 58.9332 73.14C56.0399 74.6693 52.7952 75.434 49.1992 75.434ZM50.2532 67.25C51.9066 67.25 53.3946 66.7747 54.7172 65.824C56.0812 64.832 57.2592 63.53 58.2512 61.918C59.2432 60.306 60.0079 58.5287 60.5452 56.586C61.0826 54.602 61.3512 52.618 61.3512 50.634C61.3512 48.278 60.9379 46.0667 60.1112 44C59.3259 41.9333 58.0446 40.2593 56.2672 38.978C54.4899 37.6967 52.1752 37.056 49.3232 37.056C49.5299 37.8413 49.6746 38.6473 49.7572 39.474C49.8812 40.3007 49.9432 41.148 49.9432 42.016C49.9432 43.9173 49.7572 45.86 49.3852 47.844C49.0546 49.828 48.6619 51.75 48.2072 53.61C47.7939 55.47 47.4012 57.206 47.0292 58.818C46.6986 60.43 46.5332 61.856 46.5332 63.096C46.5332 64.3773 46.8019 65.39 47.3392 66.134C47.8766 66.878 48.8479 67.25 50.2532 67.25Z" fill="#595959"/>
</svg>
