<svg width="175" height="27" viewBox="0 0 175 27" fill="none" xmlns="http://www.w3.org/2000/svg">
<path d="M160.226 26.6367C159.533 26.6367 158.947 26.5137 158.469 26.2676C157.995 26.0169 157.635 25.7002 157.389 25.3174C157.143 24.9346 157.02 24.5404 157.02 24.1348H158.913C158.927 24.3945 158.995 24.6042 159.118 24.7637C159.246 24.9186 159.41 25.0348 159.61 25.1123C159.811 25.1852 160.03 25.2217 160.267 25.2217C160.517 25.2217 160.725 25.1898 160.889 25.126C161.057 25.0622 161.185 24.971 161.271 24.8525C161.358 24.734 161.401 24.5996 161.401 24.4492C161.401 24.3079 161.36 24.1849 161.278 24.0801C161.201 23.9707 161.053 23.8704 160.834 23.7793C160.62 23.6882 160.305 23.5993 159.891 23.5127C159.389 23.4033 158.938 23.2552 158.537 23.0684C158.141 22.8815 157.828 22.6423 157.601 22.3506C157.377 22.0544 157.266 21.6921 157.266 21.2637C157.266 20.8535 157.382 20.4753 157.614 20.1289C157.851 19.778 158.188 19.4977 158.626 19.2881C159.068 19.0739 159.597 18.9668 160.212 18.9668C160.854 18.9668 161.408 19.0693 161.873 19.2744C162.338 19.4795 162.693 19.762 162.939 20.1221C163.19 20.4821 163.315 20.8923 163.315 21.3525H161.326C161.326 21.07 161.235 20.8376 161.053 20.6553C160.875 20.4684 160.595 20.375 160.212 20.375C159.993 20.375 159.806 20.4115 159.651 20.4844C159.496 20.5527 159.378 20.6462 159.296 20.7646C159.214 20.8831 159.173 21.0199 159.173 21.1748C159.173 21.3161 159.216 21.4414 159.303 21.5508C159.389 21.6556 159.531 21.749 159.727 21.8311C159.927 21.9085 160.198 21.9792 160.54 22.043C161.078 22.1478 161.556 22.2891 161.976 22.4668C162.395 22.64 162.725 22.8792 162.967 23.1846C163.213 23.4854 163.336 23.8818 163.336 24.374C163.336 24.807 163.208 25.1943 162.953 25.5361C162.698 25.8779 162.338 26.1468 161.873 26.3428C161.408 26.5387 160.859 26.6367 160.226 26.6367Z" fill="black"/>
<path d="M153.237 26.6367C152.472 26.6367 151.813 26.4749 151.262 26.1514C150.715 25.8278 150.296 25.3971 150.004 24.8594C149.712 24.3171 149.566 23.7155 149.566 23.0547V22.7881C149.566 22.0452 149.705 21.3867 149.983 20.8125C150.266 20.2337 150.665 19.7826 151.18 19.459C151.699 19.1309 152.312 18.9668 153.019 18.9668C153.734 18.9668 154.333 19.1195 154.816 19.4248C155.299 19.7256 155.664 20.1494 155.91 20.6963C156.156 21.2386 156.279 21.8743 156.279 22.6035V23.4512H150.421V22.0908H154.324V21.9336C154.32 21.6738 154.272 21.4414 154.181 21.2363C154.09 21.0267 153.948 20.8626 153.757 20.7441C153.565 20.6257 153.315 20.5664 153.005 20.5664C152.663 20.5664 152.385 20.6644 152.171 20.8604C151.957 21.0518 151.799 21.3138 151.699 21.6465C151.599 21.9792 151.549 22.3597 151.549 22.7881V23.0547C151.549 23.4421 151.619 23.7839 151.761 24.0801C151.907 24.3763 152.116 24.6087 152.39 24.7773C152.663 24.946 152.989 25.0303 153.367 25.0303C153.727 25.0303 154.06 24.9642 154.365 24.832C154.671 24.6953 154.933 24.4857 155.151 24.2031L156.122 25.2969C155.89 25.6341 155.532 25.9417 155.049 26.2197C154.57 26.4977 153.966 26.6367 153.237 26.6367Z" fill="black"/>
<path d="M145.623 26.6367C144.857 26.6367 144.222 26.4704 143.716 26.1377C143.215 25.805 142.836 25.3561 142.581 24.791C142.33 24.2259 142.205 23.5947 142.205 22.8975V22.7061C142.205 22.0088 142.33 21.3776 142.581 20.8125C142.832 20.2474 143.21 19.7985 143.716 19.4658C144.222 19.1331 144.855 18.9668 145.616 18.9668C146.227 18.9668 146.76 19.0853 147.216 19.3223C147.676 19.5547 148.036 19.8874 148.296 20.3203C148.56 20.7533 148.695 21.266 148.699 21.8584H146.833C146.824 21.6214 146.771 21.4049 146.676 21.209C146.58 21.013 146.441 20.8581 146.259 20.7441C146.076 20.6257 145.851 20.5664 145.582 20.5664C145.204 20.5664 144.914 20.6689 144.714 20.874C144.513 21.0745 144.377 21.3389 144.304 21.667C144.231 21.9906 144.194 22.3369 144.194 22.7061V22.8975C144.194 23.2757 144.229 23.6289 144.297 23.957C144.37 24.2806 144.507 24.5426 144.707 24.7432C144.912 24.9391 145.206 25.0371 145.589 25.0371C145.83 25.0371 146.042 24.9915 146.225 24.9004C146.411 24.8092 146.557 24.6816 146.662 24.5176C146.767 24.349 146.824 24.1553 146.833 23.9365H148.699C148.695 24.4606 148.553 24.9255 148.275 25.3311C148.002 25.7367 147.635 26.0557 147.175 26.2881C146.715 26.5205 146.197 26.6367 145.623 26.6367Z" fill="black"/>
<path d="M138.992 21.5576C138.992 21.2158 138.903 20.9447 138.726 20.7441C138.552 20.5391 138.279 20.4365 137.905 20.4365C137.691 20.4365 137.504 20.473 137.345 20.5459C137.19 20.6143 137.069 20.7145 136.982 20.8467C136.9 20.9788 136.859 21.1383 136.859 21.3252H134.87C134.87 20.8923 134.998 20.498 135.253 20.1426C135.513 19.7871 135.877 19.5023 136.347 19.2881C136.821 19.0739 137.377 18.9668 138.015 18.9668C138.584 18.9668 139.092 19.0625 139.539 19.2539C139.99 19.4453 140.343 19.7347 140.599 20.1221C140.858 20.5094 140.988 20.9925 140.988 21.5713V24.6953C140.988 25.1146 141.013 25.4541 141.063 25.7139C141.114 25.9691 141.187 26.1924 141.282 26.3838V26.5H139.272C139.181 26.2949 139.111 26.0397 139.061 25.7344C139.015 25.4245 138.992 25.1123 138.992 24.7979V21.5576ZM139.252 23.1367H138.192C137.668 23.1367 137.288 23.2461 137.051 23.4648C136.814 23.679 136.695 23.9479 136.695 24.2715C136.695 24.513 136.78 24.7158 136.948 24.8799C137.121 25.0394 137.356 25.1191 137.652 25.1191C137.944 25.1191 138.197 25.0622 138.411 24.9482C138.63 24.8298 138.799 24.6885 138.917 24.5244C139.035 24.3558 139.092 24.2008 139.088 24.0596L139.621 24.9209C139.557 25.1077 139.462 25.3014 139.334 25.502C139.211 25.6979 139.054 25.8825 138.862 26.0557C138.671 26.2243 138.438 26.3633 138.165 26.4727C137.896 26.582 137.582 26.6367 137.222 26.6367C136.748 26.6367 136.319 26.5433 135.937 26.3564C135.558 26.165 135.257 25.903 135.034 25.5703C134.811 25.2331 134.699 24.848 134.699 24.415C134.699 23.6403 134.986 23.041 135.561 22.6172C136.139 22.1934 136.992 21.9814 138.117 21.9814H139.252V23.1367Z" fill="black"/>
<path d="M130.503 26.5V18.4609C130.503 17.6178 130.747 16.973 131.234 16.5264C131.722 16.0798 132.383 15.8564 133.217 15.8564C133.399 15.8564 133.575 15.8701 133.743 15.8975C133.912 15.9202 134.074 15.9521 134.229 15.9932L134.215 17.5312C134.128 17.5085 134.035 17.4925 133.935 17.4834C133.834 17.4743 133.725 17.4697 133.606 17.4697C133.256 17.4697 132.982 17.5563 132.786 17.7295C132.595 17.8981 132.499 18.1419 132.499 18.4609V26.5H130.503ZM133.962 20.5527H129.402V19.1035H133.962V20.5527Z" fill="black"/>
<path d="M126.661 26.5H124.672V19.1035H126.552L126.661 20.751V26.5ZM128.835 20.9629C128.735 20.9492 128.616 20.9378 128.479 20.9287C128.347 20.915 128.229 20.9082 128.124 20.9082C127.759 20.9082 127.459 20.9674 127.222 21.0859C126.985 21.2044 126.807 21.3753 126.688 21.5986C126.575 21.8219 126.513 22.0977 126.504 22.4258L126.101 22.2891C126.101 21.6465 126.183 21.0768 126.347 20.5801C126.511 20.0788 126.752 19.6846 127.071 19.3975C127.395 19.1104 127.787 18.9668 128.247 18.9668C128.352 18.9668 128.464 18.9759 128.582 18.9941C128.701 19.0078 128.794 19.0283 128.862 19.0557L128.835 20.9629Z" fill="black"/>
<path d="M120.507 26.6367C119.741 26.6367 119.083 26.4749 118.531 26.1514C117.984 25.8278 117.565 25.3971 117.273 24.8594C116.982 24.3171 116.836 23.7155 116.836 23.0547V22.7881C116.836 22.0452 116.975 21.3867 117.253 20.8125C117.535 20.2337 117.934 19.7826 118.449 19.459C118.969 19.1309 119.582 18.9668 120.288 18.9668C121.004 18.9668 121.603 19.1195 122.086 19.4248C122.569 19.7256 122.934 20.1494 123.18 20.6963C123.426 21.2386 123.549 21.8743 123.549 22.6035V23.4512H117.69V22.0908H121.594V21.9336C121.589 21.6738 121.541 21.4414 121.45 21.2363C121.359 21.0267 121.218 20.8626 121.026 20.7441C120.835 20.6257 120.584 20.5664 120.274 20.5664C119.933 20.5664 119.655 20.6644 119.44 20.8604C119.226 21.0518 119.069 21.3138 118.969 21.6465C118.868 21.9792 118.818 22.3597 118.818 22.7881V23.0547C118.818 23.4421 118.889 23.7839 119.03 24.0801C119.176 24.3763 119.386 24.6087 119.659 24.7773C119.933 24.946 120.258 25.0303 120.637 25.0303C120.997 25.0303 121.329 24.9642 121.635 24.832C121.94 24.6953 122.202 24.4857 122.421 24.2031L123.392 25.2969C123.159 25.6341 122.801 25.9417 122.318 26.2197C121.84 26.4977 121.236 26.6367 120.507 26.6367Z" fill="black"/>
<path d="M115.996 20.5527H111.662V19.1035H115.996V20.5527ZM114.731 17.2783V24.2373C114.731 24.4424 114.759 24.5996 114.813 24.709C114.868 24.8184 114.952 24.8936 115.066 24.9346C115.18 24.9756 115.322 24.9961 115.49 24.9961C115.609 24.9961 115.716 24.9915 115.812 24.9824C115.912 24.9733 115.996 24.9619 116.064 24.9482V26.4521C115.896 26.5114 115.714 26.557 115.518 26.5889C115.326 26.6208 115.11 26.6367 114.868 26.6367C114.435 26.6367 114.059 26.5638 113.74 26.418C113.426 26.2721 113.18 26.0374 113.002 25.7139C112.829 25.3903 112.742 24.9688 112.742 24.4492V17.2783H114.731Z" fill="black"/>
<path d="M106.454 26.5H104.465V19.1035H106.331L106.454 20.6826V26.5ZM105.606 22.5693C105.606 21.8311 105.727 21.193 105.969 20.6553C106.215 20.113 106.557 19.696 106.994 19.4043C107.432 19.1126 107.94 18.9668 108.519 18.9668C108.988 18.9668 109.396 19.0579 109.742 19.2402C110.093 19.4225 110.367 19.7188 110.562 20.1289C110.763 20.5391 110.863 21.0928 110.863 21.79V26.5H108.867V21.7832C108.867 21.4688 108.822 21.2249 108.73 21.0518C108.639 20.8786 108.507 20.7578 108.334 20.6895C108.161 20.6165 107.947 20.5801 107.691 20.5801C107.436 20.5801 107.213 20.6302 107.021 20.7305C106.83 20.8262 106.671 20.9652 106.543 21.1475C106.415 21.3252 106.32 21.5348 106.256 21.7764C106.192 22.0133 106.16 22.2708 106.16 22.5488L105.606 22.5693Z" fill="black"/>
<path d="M101.865 16.1641C102.207 16.1641 102.478 16.262 102.679 16.458C102.879 16.6494 102.979 16.8955 102.979 17.1963C102.979 17.488 102.879 17.7318 102.679 17.9277C102.478 18.1191 102.207 18.2148 101.865 18.2148C101.528 18.2148 101.259 18.1191 101.059 17.9277C100.858 17.7318 100.758 17.488 100.758 17.1963C100.758 16.8955 100.858 16.6494 101.059 16.458C101.259 16.262 101.528 16.1641 101.865 16.1641ZM102.863 26.5H100.874V19.1035H102.863V26.5Z" fill="black"/>
<path d="M170.274 10.5H168.285V3.10352H170.151L170.274 4.68262V10.5ZM169.427 6.56934C169.427 5.83105 169.548 5.19303 169.789 4.65527C170.035 4.11296 170.377 3.69596 170.814 3.4043C171.252 3.11263 171.76 2.9668 172.339 2.9668C172.808 2.9668 173.216 3.05794 173.562 3.24023C173.913 3.42253 174.187 3.71875 174.383 4.12891C174.583 4.53906 174.684 5.09277 174.684 5.79004V10.5H172.688V5.7832C172.688 5.46875 172.642 5.22493 172.551 5.05176C172.46 4.87858 172.327 4.75781 172.154 4.68945C171.981 4.61654 171.767 4.58008 171.512 4.58008C171.257 4.58008 171.033 4.63021 170.842 4.73047C170.65 4.82617 170.491 4.96517 170.363 5.14746C170.236 5.3252 170.14 5.53483 170.076 5.77637C170.012 6.01335 169.98 6.27083 169.98 6.54883L169.427 6.56934Z" fill="black"/>
<path d="M164.163 10.6367C163.397 10.6367 162.739 10.4749 162.188 10.1514C161.641 9.8278 161.221 9.39714 160.93 8.85938C160.638 8.31706 160.492 7.71549 160.492 7.05469V6.78809C160.492 6.04525 160.631 5.38672 160.909 4.8125C161.192 4.23372 161.59 3.78255 162.105 3.45898C162.625 3.13086 163.238 2.9668 163.944 2.9668C164.66 2.9668 165.259 3.11947 165.742 3.4248C166.225 3.72559 166.59 4.14941 166.836 4.69629C167.082 5.23861 167.205 5.87435 167.205 6.60352V7.45117H161.347V6.09082H165.25V5.93359C165.245 5.67383 165.198 5.44141 165.106 5.23633C165.015 5.02669 164.874 4.86263 164.683 4.74414C164.491 4.62565 164.241 4.56641 163.931 4.56641C163.589 4.56641 163.311 4.66439 163.097 4.86035C162.882 5.05176 162.725 5.3138 162.625 5.64648C162.525 5.97917 162.475 6.3597 162.475 6.78809V7.05469C162.475 7.44206 162.545 7.78385 162.687 8.08008C162.832 8.3763 163.042 8.60872 163.315 8.77734C163.589 8.94596 163.915 9.03027 164.293 9.03027C164.653 9.03027 164.986 8.96419 165.291 8.83203C165.596 8.69531 165.858 8.48568 166.077 8.20312L167.048 9.29688C166.815 9.63411 166.458 9.94173 165.975 10.2197C165.496 10.4977 164.892 10.6367 164.163 10.6367Z" fill="black"/>
<path d="M157.806 3.10352H159.884L157.396 10.5H156.131L156.186 9.00977L157.806 3.10352ZM156.712 9.02344L156.76 10.5H155.495L153 3.10352H155.085L156.712 9.02344Z" fill="black"/>
<path d="M151.029 0.164062C151.371 0.164062 151.642 0.262044 151.843 0.458008C152.043 0.649414 152.144 0.895508 152.144 1.19629C152.144 1.48796 152.043 1.73177 151.843 1.92773C151.642 2.11914 151.371 2.21484 151.029 2.21484C150.692 2.21484 150.423 2.11914 150.223 1.92773C150.022 1.73177 149.922 1.48796 149.922 1.19629C149.922 0.895508 150.022 0.649414 150.223 0.458008C150.423 0.262044 150.692 0.164062 151.029 0.164062ZM152.027 10.5H150.038V3.10352H152.027V10.5Z" fill="black"/>
<path d="M146.798 10.5H144.809V3.10352H146.688L146.798 4.75098V10.5ZM148.972 4.96289C148.871 4.94922 148.753 4.93783 148.616 4.92871C148.484 4.91504 148.366 4.9082 148.261 4.9082C147.896 4.9082 147.595 4.96745 147.358 5.08594C147.121 5.20443 146.944 5.37533 146.825 5.59863C146.711 5.82194 146.65 6.09766 146.641 6.42578L146.237 6.28906C146.237 5.64648 146.319 5.07682 146.483 4.58008C146.647 4.07878 146.889 3.68457 147.208 3.39746C147.532 3.11035 147.924 2.9668 148.384 2.9668C148.489 2.9668 148.6 2.97591 148.719 2.99414C148.837 3.00781 148.931 3.02832 148.999 3.05566L148.972 4.96289Z" fill="black"/>
<path d="M139.491 10.6367C138.881 10.6367 138.359 10.4749 137.926 10.1514C137.497 9.82324 137.169 9.37663 136.941 8.81152C136.714 8.24642 136.6 7.60612 136.6 6.89062V6.74707C136.6 5.99512 136.714 5.33659 136.941 4.77148C137.169 4.20182 137.5 3.75977 137.933 3.44531C138.366 3.1263 138.89 2.9668 139.505 2.9668C140.088 2.9668 140.576 3.13086 140.968 3.45898C141.36 3.78255 141.667 4.22689 141.891 4.79199C142.114 5.35254 142.269 5.99056 142.355 6.70605V6.97949C142.269 7.66309 142.112 8.2806 141.884 8.83203C141.66 9.38346 141.353 9.82324 140.961 10.1514C140.569 10.4749 140.079 10.6367 139.491 10.6367ZM139.997 9.02344C140.33 9.02344 140.603 8.94824 140.817 8.79785C141.036 8.64746 141.202 8.43783 141.316 8.16895C141.435 7.90007 141.506 7.59245 141.528 7.24609V6.44629C141.515 6.15462 141.474 5.89486 141.405 5.66699C141.337 5.43457 141.241 5.23861 141.118 5.0791C140.995 4.9196 140.84 4.79655 140.653 4.70996C140.471 4.62337 140.257 4.58008 140.011 4.58008C139.669 4.58008 139.393 4.67578 139.184 4.86719C138.974 5.05859 138.821 5.31836 138.726 5.64648C138.634 5.97005 138.589 6.33691 138.589 6.74707V6.89062C138.589 7.28711 138.634 7.64714 138.726 7.9707C138.817 8.28971 138.965 8.54492 139.17 8.73633C139.375 8.92773 139.651 9.02344 139.997 9.02344ZM141.474 10.5L141.275 8.87305V0H143.271V10.5H141.474Z" fill="black"/>
<path d="M135.313 7.04102H131.465V5.43457H135.313V7.04102Z" fill="black"/>
<path d="M127.262 10.6367C126.496 10.6367 125.86 10.4704 125.354 10.1377C124.853 9.80501 124.475 9.35612 124.22 8.79102C123.969 8.22591 123.844 7.59473 123.844 6.89746V6.70605C123.844 6.00879 123.969 5.3776 124.22 4.8125C124.47 4.2474 124.849 3.7985 125.354 3.46582C125.86 3.13314 126.494 2.9668 127.255 2.9668C127.866 2.9668 128.399 3.08529 128.854 3.32227C129.315 3.55469 129.675 3.88737 129.935 4.32031C130.199 4.75326 130.333 5.26595 130.338 5.8584H128.472C128.463 5.62142 128.41 5.40495 128.314 5.20898C128.219 5.01302 128.08 4.85807 127.897 4.74414C127.715 4.62565 127.49 4.56641 127.221 4.56641C126.842 4.56641 126.553 4.66895 126.353 4.87402C126.152 5.07454 126.015 5.33887 125.942 5.66699C125.869 5.99056 125.833 6.33691 125.833 6.70605V6.89746C125.833 7.27572 125.867 7.62891 125.936 7.95703C126.008 8.2806 126.145 8.54264 126.346 8.74316C126.551 8.93913 126.845 9.03711 127.228 9.03711C127.469 9.03711 127.681 8.99154 127.863 8.90039C128.05 8.80924 128.196 8.68164 128.301 8.51758C128.406 8.34896 128.463 8.15527 128.472 7.93652H130.338C130.333 8.46061 130.192 8.92546 129.914 9.33105C129.641 9.73665 129.274 10.0557 128.813 10.2881C128.353 10.5205 127.836 10.6367 127.262 10.6367Z" fill="black"/>
<path d="M121.514 0.164062C121.855 0.164062 122.127 0.262044 122.327 0.458008C122.528 0.649414 122.628 0.895508 122.628 1.19629C122.628 1.48796 122.528 1.73177 122.327 1.92773C122.127 2.11914 121.855 2.21484 121.514 2.21484C121.176 2.21484 120.908 2.11914 120.707 1.92773C120.507 1.73177 120.406 1.48796 120.406 1.19629C120.406 0.895508 120.507 0.649414 120.707 0.458008C120.908 0.262044 121.176 0.164062 121.514 0.164062ZM122.512 10.5H120.522V3.10352H122.512V10.5Z" fill="black"/>
<path d="M115.326 13.4121C115.03 13.4121 114.706 13.3711 114.355 13.2891C114.009 13.207 113.676 13.0794 113.357 12.9062C113.043 12.7376 112.781 12.5212 112.571 12.2568L113.453 11.0469C113.681 11.3021 113.945 11.5026 114.246 11.6484C114.551 11.7943 114.882 11.8672 115.237 11.8672C115.761 11.8672 116.169 11.7259 116.461 11.4434C116.753 11.1654 116.898 10.7689 116.898 10.2539V4.81934L117.083 3.10352H118.895V10.2471C118.895 10.9215 118.744 11.4935 118.443 11.9629C118.143 12.4368 117.723 12.7969 117.186 13.043C116.652 13.2891 116.033 13.4121 115.326 13.4121ZM115.107 10.6367C114.497 10.6367 113.966 10.4749 113.515 10.1514C113.068 9.82324 112.722 9.37663 112.476 8.81152C112.234 8.24642 112.113 7.60612 112.113 6.89062V6.74707C112.113 5.99512 112.234 5.33659 112.476 4.77148C112.722 4.20182 113.068 3.75977 113.515 3.44531C113.966 3.1263 114.501 2.9668 115.121 2.9668C115.613 2.9668 116.026 3.06022 116.358 3.24707C116.696 3.43392 116.971 3.69596 117.186 4.0332C117.4 4.37044 117.568 4.76693 117.691 5.22266C117.814 5.67839 117.91 6.17513 117.979 6.71289V6.97949C117.887 7.66309 117.732 8.2806 117.514 8.83203C117.299 9.38346 116.996 9.82324 116.604 10.1514C116.213 10.4749 115.714 10.6367 115.107 10.6367ZM115.613 9.02344C115.969 9.02344 116.258 8.94824 116.481 8.79785C116.705 8.64746 116.873 8.43783 116.987 8.16895C117.101 7.90007 117.17 7.59245 117.192 7.24609V6.44629C117.179 6.15462 117.138 5.89486 117.069 5.66699C117.006 5.43457 116.91 5.23861 116.782 5.0791C116.655 4.9196 116.495 4.79655 116.304 4.70996C116.117 4.62337 115.891 4.58008 115.627 4.58008C115.285 4.58008 115 4.67578 114.772 4.86719C114.549 5.05859 114.383 5.31836 114.273 5.64648C114.164 5.97005 114.109 6.33691 114.109 6.74707V6.89062C114.109 7.28711 114.162 7.64714 114.267 7.9707C114.376 8.28971 114.54 8.54492 114.759 8.73633C114.982 8.92773 115.267 9.02344 115.613 9.02344Z" fill="black"/>
<path d="M104.17 6.7334C104.17 6.01335 104.307 5.37077 104.58 4.80566C104.854 4.236 105.25 3.78711 105.77 3.45898C106.294 3.13086 106.927 2.9668 107.67 2.9668C108.422 2.9668 109.058 3.13086 109.577 3.45898C110.101 3.78711 110.498 4.236 110.767 4.80566C111.04 5.37077 111.177 6.01335 111.177 6.7334V6.87695C111.177 7.59245 111.04 8.23503 110.767 8.80469C110.498 9.37435 110.104 9.82324 109.584 10.1514C109.064 10.4749 108.431 10.6367 107.684 10.6367C106.936 10.6367 106.3 10.4749 105.776 10.1514C105.252 9.82324 104.854 9.37435 104.58 8.80469C104.307 8.23503 104.17 7.59245 104.17 6.87695V6.7334ZM106.166 6.87695C106.166 7.27344 106.214 7.63574 106.31 7.96387C106.41 8.29199 106.569 8.55404 106.788 8.75C107.011 8.94141 107.31 9.03711 107.684 9.03711C108.048 9.03711 108.34 8.94141 108.559 8.75C108.782 8.55404 108.944 8.29199 109.044 7.96387C109.144 7.63574 109.194 7.27344 109.194 6.87695V6.7334C109.194 6.34147 109.144 5.98145 109.044 5.65332C108.944 5.3252 108.782 5.06315 108.559 4.86719C108.34 4.66667 108.044 4.56641 107.67 4.56641C107.305 4.56641 107.011 4.66667 106.788 4.86719C106.569 5.06315 106.41 5.3252 106.31 5.65332C106.214 5.98145 106.166 6.34147 106.166 6.7334V6.87695Z" fill="black"/>
<path d="M102.856 10.5H100.867V0H102.856V10.5Z" fill="black"/>
<circle cx="46.2168" cy="13.4166" r="13.4141" fill="black"/>
<rect x="83.8281" y="0.0594482" width="10.4028" height="27.4549" transform="rotate(45 83.8281 0.0594482)" fill="black"/>
<rect y="0.539185" width="10.5912" height="25.4189" fill="black"/>
<rect x="15.8867" y="0.539185" width="10.5912" height="25.4189" fill="black"/>
<rect x="64.4316" y="7.42383" width="10.4028" height="27.366" transform="rotate(-45 64.4316 7.42383)" fill="black"/>
</svg>
